<?xml version="1.0" encoding="UTF-8" standalone="no"?>
<!-- Created with Inkscape (http://www.inkscape.org/) -->

<svg
   xmlns:dc="http://purl.org/dc/elements/1.1/"
   xmlns:cc="http://creativecommons.org/ns#"
   xmlns:rdf="http://www.w3.org/1999/02/22-rdf-syntax-ns#"
   xmlns:svg="http://www.w3.org/2000/svg"
   xmlns="http://www.w3.org/2000/svg"
   xmlns:sodipodi="http://sodipodi.sourceforge.net/DTD/sodipodi-0.dtd"
   xmlns:inkscape="http://www.inkscape.org/namespaces/inkscape"
   width="210mm"
   height="297mm"
   viewBox="0 0 744.09448819 1052.3622047"
   id="svg2"
   version="1.1"
   inkscape:version="0.91 r13725"
   sodipodi:docname="logo.svg">
  <defs
     id="defs4" />
  <sodipodi:namedview
     id="base"
     pagecolor="#ffffff"
     bordercolor="#666666"
     borderopacity="1.0"
     inkscape:pageopacity="0.0"
     inkscape:pageshadow="2"
     inkscape:zoom="6.9654887"
     inkscape:cx="72.610629"
     inkscape:cy="1011.0365"
     inkscape:document-units="px"
     inkscape:current-layer="g4735"
     showgrid="false"
     inkscape:window-width="3200"
     inkscape:window-height="1780"
     inkscape:window-x="0"
     inkscape:window-y="20"
     inkscape:window-maximized="0"
     showguides="true"
     inkscape:guide-bbox="true" />
  <metadata
     id="metadata7">
    <rdf:RDF>
      <cc:Work
         rdf:about="">
        <dc:format>image/svg+xml</dc:format>
        <dc:type
           rdf:resource="http://purl.org/dc/dcmitype/StillImage" />
        <dc:title></dc:title>
      </cc:Work>
    </rdf:RDF>
  </metadata>
  <g
     inkscape:label="Layer 1"
     inkscape:groupmode="layer"
     id="layer1">
    <g
       id="g4919"
       transform="translate(0.32147117,0.46947153)">
      <g
         transform="translate(-141.84217,-962.45939)"
         id="g4735">
        <path
           id="path4557"
           style="font-style:normal;font-variant:normal;font-weight:normal;font-stretch:normal;font-size:94.74624634px;line-height:125%;font-family:'Noto Naskh Arabic';-inkscape-font-specification:'Noto Naskh Arabic';text-align:start;letter-spacing:0px;word-spacing:0px;writing-mode:lr-tb;text-anchor:start;fill:#333333;fill-opacity:1;stroke:none;stroke-width:1px;stroke-linecap:butt;stroke-linejoin:miter;stroke-opacity:1"
           d="m 204.14222,967.40871 0,15.95014 20.9962,0 0,3.71204 -20.9962,0 0,17.22621 -4.29204,0 0,-40.60043 27.84026,0 0,3.71204 -23.54822,0 z"
           inkscape:connector-curvature="0" />
        <path
           id="path4559"
           style="font-style:normal;font-variant:normal;font-weight:normal;font-stretch:normal;font-size:94.74624634px;line-height:125%;font-family:'Noto Naskh Arabic';-inkscape-font-specification:'Noto Naskh Arabic';text-align:start;letter-spacing:0px;word-spacing:0px;writing-mode:lr-tb;text-anchor:start;fill:#333333;fill-opacity:1;stroke:none;stroke-width:1px;stroke-linecap:butt;stroke-linejoin:miter;stroke-opacity:1"
           d="m 240.84568,967.40871 0,15.95014 20.99619,0 0,3.71204 -20.99619,0 0,17.22621 -4.29204,0 0,-40.60043 27.84025,0 0,3.71204 -23.54821,0 z"
           inkscape:connector-curvature="0" />
        <g
           style="font-style:normal;font-weight:normal;font-size:medium;line-height:125%;font-family:sans-serif;letter-spacing:0px;word-spacing:0px;fill:#333333;fill-opacity:1;stroke:none;stroke-width:1px;stroke-linecap:butt;stroke-linejoin:miter;stroke-opacity:1"
           transform="matrix(0.61216699,0,0,0.61216699,123.57884,736.21969)"
           id="g4561">
          <path
             inkscape:connector-curvature="0"
             d="m 291.49534,377.65679 -23.30757,0 0,-6.06376 53.62637,0 0,6.06376 -23.30758,0 0,60.25862 -7.01122,0 0,-60.25862 z"
             style="font-style:normal;font-variant:normal;font-weight:normal;font-stretch:normal;font-size:94.74624634px;line-height:125%;font-family:'Noto Naskh Arabic';-inkscape-font-specification:'Noto Naskh Arabic';text-align:start;writing-mode:lr-tb;text-anchor:start;fill:#333333"
             id="path4563" />
          <path
             sodipodi:nodetypes="ccccccccccccc"
             inkscape:connector-curvature="0"
             d="m 388.44147,371.59303 0,66.32238 -6.91648,0 0.16515,-28.04319 -41.49886,0 -0.16515,28.04319 -7.01122,0 0,-66.32238 7.01122,0 0.16515,32.12068 41.49886,0 -0.16515,-32.12068 z"
             style="font-style:normal;font-variant:normal;font-weight:normal;font-stretch:normal;font-size:94.74624634px;line-height:125%;font-family:'Noto Naskh Arabic';-inkscape-font-specification:'Noto Naskh Arabic';text-align:start;writing-mode:lr-tb;text-anchor:start;fill:#333333"
             id="path4565" />
          <path
             sodipodi:nodetypes="ccccccccccccc"
             inkscape:connector-curvature="0"
             d="m 456.71057,431.85165 0,6.06376 -46.89939,0 0,-66.32238 45.4782,0 0,6.06376 -38.46698,0 0,26.0691 34.29814,0 0,5.96901 -34.29814,0 0,22.15675 z"
             style="font-style:normal;font-variant:normal;font-weight:normal;font-stretch:normal;font-size:94.74624634px;line-height:125%;font-family:'Noto Naskh Arabic';-inkscape-font-specification:'Noto Naskh Arabic';text-align:start;writing-mode:lr-tb;text-anchor:start;fill:#333333"
             id="path4567" />
        </g>
        <g
           style="font-style:normal;font-weight:normal;font-size:medium;line-height:125%;font-family:sans-serif;letter-spacing:0px;word-spacing:0px;fill:#333333;fill-opacity:1;stroke:none;stroke-width:1px;stroke-linecap:butt;stroke-linejoin:miter;stroke-opacity:1"
           transform="matrix(0.61216699,0,0,0.61216699,107.82218,736.21969)"
           id="g4569">
          <path
             inkscape:connector-curvature="0"
             d="m 554.96837,404.75422 6.72699,0 0,25.29725 q -4.64257,4.07409 -10.99057,6.25325 -6.348,2.17916 -13.35922,2.17916 -9.94835,0 -17.90704,-4.35832 -7.95868,-4.35833 -12.5065,-12.03278 -4.54782,-7.76919 -4.54782,-17.33856 0,-9.56937 4.54782,-17.24382 4.54782,-7.76919 12.5065,-12.12752 7.95869,-4.35832 18.00179,-4.35832 7.5797,0 13.9277,2.4634 6.34799,2.36865 10.70632,7.10597 l -4.35833,4.45307 q -7.86393,-7.76919 -19.99145,-7.76919 -8.05343,0 -14.59093,3.60035 -6.44274,3.50562 -10.13784,9.85361 -3.69511,6.25326 -3.69511,14.02245 0,7.76919 3.69511,14.02244 3.6951,6.25326 10.13784,9.85361 6.44275,3.60036 14.49618,3.60036 10.23259,0 17.33856,-5.1163 l 0,-22.36011 z"
             style="font-style:normal;font-variant:normal;font-weight:normal;font-stretch:normal;font-size:94.74624634px;line-height:125%;font-family:'Noto Naskh Arabic';-inkscape-font-specification:'Noto Naskh Arabic';text-align:start;writing-mode:lr-tb;text-anchor:start;fill:#333333"
             id="path4571" />
          <path
             inkscape:connector-curvature="0"
             d="m 627.01251,437.91541 -15.1594,-21.31791 q -2.55815,0.28424 -5.30579,0.28424 l -17.81229,0 0,21.03367 -7.01122,0 0,-66.32238 24.82351,0 q 12.696,0 19.89671,6.06376 7.20072,6.06376 7.20072,16.67534 0,7.76919 -3.97934,13.16973 -3.8846,5.30579 -11.18006,7.67445 l 16.20161,22.7391 -7.67445,0 z m -20.65468,-27.00268 q 9.85361,0 15.06465,-4.35833 5.21105,-4.35833 5.21105,-12.22227 0,-8.05343 -5.21105,-12.31701 -5.21104,-4.35833 -15.06465,-4.35833 l -17.6228,0 0,33.25594 17.6228,0 z"
             style="font-style:normal;font-variant:normal;font-weight:normal;font-stretch:normal;font-size:94.74624634px;line-height:125%;font-family:'Noto Naskh Arabic';-inkscape-font-specification:'Noto Naskh Arabic';text-align:start;writing-mode:lr-tb;text-anchor:start;fill:#333333"
             id="path4573" />
          <path
             inkscape:connector-curvature="0"
             d="m 650.1928,371.59303 7.01122,0 0,66.32238 -7.01122,0 0,-66.32238 z"
             style="font-style:normal;font-variant:normal;font-weight:normal;font-stretch:normal;font-size:94.74624634px;line-height:125%;font-family:'Noto Naskh Arabic';-inkscape-font-specification:'Noto Naskh Arabic';text-align:start;writing-mode:lr-tb;text-anchor:start;fill:#333333"
             id="path4575" />
          <path
             inkscape:connector-curvature="0"
             d="m 678.69066,371.59303 27.00268,0 q 10.51684,0 18.57027,4.26358 8.05343,4.16884 12.5065,11.74854 4.45308,7.48495 4.45308,17.14907 0,9.66412 -4.45308,17.24382 -4.45307,7.48495 -12.5065,11.74853 -8.05343,4.16884 -18.57027,4.16884 l -27.00268,0 0,-66.32238 z m 26.6237,60.25862 q 8.71665,0 15.25414,-3.41087 6.5375,-3.50561 10.13785,-9.56937 3.60036,-6.15851 3.60036,-14.11719 0,-7.95869 -3.60036,-14.02245 -3.60035,-6.1585 -10.13785,-9.56937 -6.53749,-3.50561 -15.25414,-3.50561 l -19.61247,0 0,54.19486 19.61247,0 z"
             style="font-style:normal;font-variant:normal;font-weight:normal;font-stretch:normal;font-size:94.74624634px;line-height:125%;font-family:'Noto Naskh Arabic';-inkscape-font-specification:'Noto Naskh Arabic';text-align:start;writing-mode:lr-tb;text-anchor:start;fill:#333333"
             id="path4577" />
        </g>
        <path
           style="color:#000000;font-style:normal;font-variant:normal;font-weight:normal;font-stretch:normal;font-size:medium;line-height:125%;font-family:sans-serif;text-indent:0;text-align:start;text-decoration:none;text-decoration-line:none;text-decoration-style:solid;text-decoration-color:#000000;letter-spacing:0px;word-spacing:0px;text-transform:none;direction:ltr;block-progression:tb;writing-mode:lr-tb;baseline-shift:baseline;text-anchor:start;white-space:normal;clip-rule:nonzero;display:inline;overflow:visible;visibility:visible;opacity:1;isolation:auto;mix-blend-mode:normal;color-interpolation:sRGB;color-interpolation-filters:linearRGB;solid-color:#000000;solid-opacity:1;fill:#333333;fill-opacity:1;fill-rule:nonzero;stroke:none;stroke-width:3.91700006;stroke-linecap:butt;stroke-linejoin:round;stroke-miterlimit:4;stroke-dasharray:none;stroke-dashoffset:0;stroke-opacity:1;color-rendering:auto;image-rendering:auto;shape-rendering:auto;text-rendering:auto;enable-background:accumulate"
           d="m 169.05273,961.99023 -0.88085,3.81641 c 6.75252,1.55605 12.06987,6.7311 13.80664,13.43555 1.73676,6.70444 -0.39871,13.80753 -5.54688,18.44336 l 2.62109,2.91015 c 6.22786,-5.60806 8.82003,-14.22436 6.71875,-22.33593 -2.10127,-8.11158 -8.55093,-14.38735 -16.71875,-16.26954 z"
           id="path4581"
           inkscape:connector-curvature="0" />
        <path
           style="color:#000000;font-style:normal;font-variant:normal;font-weight:normal;font-stretch:normal;font-size:medium;line-height:125%;font-family:sans-serif;text-indent:0;text-align:start;text-decoration:none;text-decoration-line:none;text-decoration-style:solid;text-decoration-color:#000000;letter-spacing:0px;word-spacing:0px;text-transform:none;direction:ltr;block-progression:tb;writing-mode:lr-tb;baseline-shift:baseline;text-anchor:start;white-space:normal;clip-rule:nonzero;display:inline;overflow:visible;visibility:visible;opacity:1;isolation:auto;mix-blend-mode:normal;color-interpolation:sRGB;color-interpolation-filters:linearRGB;solid-color:#000000;solid-opacity:1;fill:#333333;fill-opacity:1;fill-rule:nonzero;stroke:none;stroke-width:3.91700006;stroke-linecap:butt;stroke-linejoin:round;stroke-miterlimit:4;stroke-dasharray:none;stroke-dashoffset:0;stroke-opacity:1;color-rendering:auto;image-rendering:auto;shape-rendering:auto;text-rendering:auto;enable-background:accumulate"
           d="m 148.93555,979.26172 c -1.29066,4.19385 -0.77194,8.73925 1.42968,12.53516 2.20163,3.79589 5.8881,6.5025 10.16993,7.46679 l 0.86132,-3.82031 c -3.2197,-0.72509 -5.98949,-2.75782 -7.64453,-5.61133 -1.65504,-2.85351 -2.04243,-6.26551 -1.07226,-9.41797 l -3.74414,-1.15234 z"
           id="path4583"
           inkscape:connector-curvature="0" />
        <path
           style="color:#000000;font-style:normal;font-variant:normal;font-weight:normal;font-stretch:normal;font-size:medium;line-height:125%;font-family:sans-serif;text-indent:0;text-align:start;text-decoration:none;text-decoration-line:none;text-decoration-style:solid;text-decoration-color:#000000;letter-spacing:0px;word-spacing:0px;text-transform:none;direction:ltr;block-progression:tb;writing-mode:lr-tb;baseline-shift:baseline;text-anchor:start;white-space:normal;clip-rule:nonzero;display:inline;overflow:visible;visibility:visible;opacity:1;isolation:auto;mix-blend-mode:normal;color-interpolation:sRGB;color-interpolation-filters:linearRGB;solid-color:#000000;solid-opacity:1;fill:#333333;fill-opacity:1;fill-rule:nonzero;stroke:none;stroke-width:3.91700006;stroke-linecap:butt;stroke-linejoin:miter;stroke-miterlimit:4;stroke-dasharray:none;stroke-dashoffset:0;stroke-opacity:1;color-rendering:auto;image-rendering:auto;shape-rendering:auto;text-rendering:auto;enable-background:accumulate"
           d="m 147.54688,968.57031 c -8.04377,8.62858 -8.03321,22.05726 0.0234,30.67383 l 2.86133,-2.67578 c -6.67621,-7.1402 -6.68507,-18.17798 -0.0195,-25.32813 l -2.86523,-2.66992 z"
           id="path4585"
           inkscape:connector-curvature="0" />
        <path
           style="color:#000000;font-style:normal;font-variant:normal;font-weight:normal;font-stretch:normal;font-size:medium;line-height:125%;font-family:sans-serif;text-indent:0;text-align:start;text-decoration:none;text-decoration-line:none;text-decoration-style:solid;text-decoration-color:#000000;letter-spacing:0px;word-spacing:0px;text-transform:none;direction:ltr;block-progression:tb;writing-mode:lr-tb;baseline-shift:baseline;text-anchor:start;white-space:normal;clip-rule:nonzero;display:inline;overflow:visible;visibility:visible;opacity:1;isolation:auto;mix-blend-mode:normal;color-interpolation:sRGB;color-interpolation-filters:linearRGB;solid-color:#000000;solid-opacity:1;fill:#333333;fill-opacity:1;fill-rule:nonzero;stroke:none;stroke-width:3.91700006;stroke-linecap:butt;stroke-linejoin:round;stroke-miterlimit:4;stroke-dasharray:none;stroke-dashoffset:0;stroke-opacity:1;color-rendering:auto;image-rendering:auto;shape-rendering:auto;text-rendering:auto;enable-background:accumulate"
           d="m 157.35547,1001.2285 -1.40039,3.6582 c 4.33335,1.6592 9.07427,1.9371 13.57226,0.7969 l -0.96289,-3.7969 c -3.71521,0.9418 -7.62982,0.7123 -11.20898,-0.6582 z"
           id="path4587"
           inkscape:connector-curvature="0" />
        <path
           style="color:#000000;font-style:normal;font-variant:normal;font-weight:normal;font-stretch:normal;font-size:medium;line-height:125%;font-family:sans-serif;text-indent:0;text-align:start;text-decoration:none;text-decoration-line:none;text-decoration-style:solid;text-decoration-color:#000000;letter-spacing:0px;word-spacing:0px;text-transform:none;direction:ltr;block-progression:tb;writing-mode:lr-tb;baseline-shift:baseline;text-anchor:start;white-space:normal;clip-rule:nonzero;display:inline;overflow:visible;visibility:visible;opacity:1;isolation:auto;mix-blend-mode:normal;color-interpolation:sRGB;color-interpolation-filters:linearRGB;solid-color:#000000;solid-opacity:1;fill:#333333;fill-opacity:1;fill-rule:evenodd;stroke:none;stroke-width:3.70000005;stroke-linecap:butt;stroke-linejoin:miter;stroke-miterlimit:4;stroke-dasharray:none;stroke-dashoffset:0;stroke-opacity:1;color-rendering:auto;image-rendering:auto;shape-rendering:auto;text-rendering:auto;enable-background:accumulate"
           d="m 258.18359,983.34961 0,3.70117 36.71094,0 0,-3.70117 -36.71094,0 z"
           id="path4589"
           inkscape:connector-curvature="0" />
        <path
           style="color:#000000;font-style:normal;font-variant:normal;font-weight:normal;font-stretch:normal;font-size:medium;line-height:125%;font-family:sans-serif;text-indent:0;text-align:start;text-decoration:none;text-decoration-line:none;text-decoration-style:solid;text-decoration-color:#000000;letter-spacing:0px;word-spacing:0px;text-transform:none;direction:ltr;block-progression:tb;writing-mode:lr-tb;baseline-shift:baseline;text-anchor:start;white-space:normal;clip-rule:nonzero;display:inline;overflow:visible;visibility:visible;opacity:1;isolation:auto;mix-blend-mode:normal;color-interpolation:sRGB;color-interpolation-filters:linearRGB;solid-color:#000000;solid-opacity:1;fill:#333333;fill-opacity:1;fill-rule:evenodd;stroke:none;stroke-width:3.70000005;stroke-linecap:butt;stroke-linejoin:miter;stroke-miterlimit:4;stroke-dasharray:none;stroke-dashoffset:0;stroke-opacity:1;color-rendering:auto;image-rendering:auto;shape-rendering:auto;text-rendering:auto;enable-background:accumulate"
           d="m 398.18359,983.34961 0,3.70117 36.71094,0 0,-3.70117 -36.71094,0 z"
           id="path4591"
           inkscape:connector-curvature="0" />
      </g>
    </g>
  </g>
</svg>
